<svg id="Ebene_1" data-name="Ebene 1" xmlns="http://www.w3.org/2000/svg" viewBox="0 0 841.89 595.28"><defs><style>.cls-1{fill:#cfe09b;}.cls-2{fill:#95c11f;}</style></defs><path class="cls-1" d="M146.67,348.74V328a3.28,3.28,0,0,0-.87-2.43,3.64,3.64,0,0,0-2.67-.87,5.92,5.92,0,0,0-2.46.42v23.58H129V328a3.28,3.28,0,0,0-.87-2.43,3.64,3.64,0,0,0-2.67-.87,5.92,5.92,0,0,0-2.46.42v23.58H111.39V318a37.79,37.79,0,0,1,6-1.71,36.09,36.09,0,0,1,7.26-.69,20.11,20.11,0,0,1,6.54.87,19,19,0,0,1,4,1.89,20,20,0,0,1,4.53-1.86,23,23,0,0,1,6.69-.9q5.76,0,8.82,2.94a10.7,10.7,0,0,1,3.06,8.1v22.08Z"/><path class="cls-1" d="M176.07,306.86a5.28,5.28,0,0,1-.51,2.28,6.39,6.39,0,0,1-1.35,1.89,6,6,0,0,1-2,1.26,6.95,6.95,0,0,1-4.92,0,6.33,6.33,0,0,1-2-1.26,5.75,5.75,0,0,1-1.35-1.89,5.65,5.65,0,0,1,0-4.56,5.75,5.75,0,0,1,1.35-1.89,6.33,6.33,0,0,1,2-1.26,6.95,6.95,0,0,1,4.92,0,6,6,0,0,1,2,1.26,6.39,6.39,0,0,1,1.35,1.89A5.28,5.28,0,0,1,176.07,306.86ZM164,348.74V316.4h11.64v32.34Z"/><path class="cls-1" d="M211.17,333a11.87,11.87,0,0,1-.12,1.68l-19.44,2.46a4.56,4.56,0,0,0,2.49,2.58,10.2,10.2,0,0,0,4.29.84,22.48,22.48,0,0,0,4.89-.54,20.94,20.94,0,0,0,4.35-1.44l3.12,8.58a25.2,25.2,0,0,1-5.91,1.74,40.69,40.69,0,0,1-7.41.66,19.9,19.9,0,0,1-7.68-1.35,14.76,14.76,0,0,1-5.34-3.66,15.19,15.19,0,0,1-3.15-5.4,20.28,20.28,0,0,1-1-6.57,20.52,20.52,0,0,1,1.08-6.81,15.42,15.42,0,0,1,3.12-5.34,14.08,14.08,0,0,1,5-3.51,17.14,17.14,0,0,1,6.75-1.26,17,17,0,0,1,6.54,1.17,12.86,12.86,0,0,1,4.71,3.27,13.57,13.57,0,0,1,2.82,5,20.2,20.2,0,0,1,.93,6.24Zm-11.22-4a6,6,0,0,0-1.08-3.81,3.63,3.63,0,0,0-3-1.35,5.06,5.06,0,0,0-3.54,1.38q-1.5,1.38-1.56,4.86Z"/><path class="cls-1" d="M233.85,348.08A12.19,12.19,0,0,1,231,349a18.66,18.66,0,0,1-3.84.39q-5.46,0-7.68-2.94t-2.22-8.76V325h-3.48V316.4h3.48v-6.6l11.4-3.06v9.66h5.16V325h-5.16V336.8a2.13,2.13,0,0,0,.69,1.86,3.26,3.26,0,0,0,1.89.48,5.69,5.69,0,0,0,1.38-.18,5.92,5.92,0,0,0,1.2-.42Z"/><path class="cls-1" d="M256.53,325.52a5.29,5.29,0,0,0-1.8-.6,12.77,12.77,0,0,0-2.1-.18,6.9,6.9,0,0,0-2.4.36v23.64H238.59V318a44.19,44.19,0,0,1,6.54-1.71,45,45,0,0,1,8.28-.69q1.62,0,3,.12a21.47,21.47,0,0,1,2.25.3Z"/><path class="cls-1" d="M290.79,333a11.87,11.87,0,0,1-.12,1.68l-19.44,2.46a4.56,4.56,0,0,0,2.49,2.58,10.2,10.2,0,0,0,4.29.84,22.48,22.48,0,0,0,4.89-.54,20.94,20.94,0,0,0,4.35-1.44l3.12,8.58a25.2,25.2,0,0,1-5.91,1.74,40.69,40.69,0,0,1-7.41.66,19.9,19.9,0,0,1-7.68-1.35,14.76,14.76,0,0,1-5.34-3.66,15.19,15.19,0,0,1-3.15-5.4,20.28,20.28,0,0,1-1.05-6.57,20.52,20.52,0,0,1,1.08-6.81,15.42,15.42,0,0,1,3.12-5.34,14.08,14.08,0,0,1,5-3.51,17.14,17.14,0,0,1,6.75-1.26,17,17,0,0,1,6.54,1.17,12.86,12.86,0,0,1,4.71,3.27,13.57,13.57,0,0,1,2.82,5,20.2,20.2,0,0,1,.93,6.24Zm-11.22-4a6,6,0,0,0-1.08-3.81,3.63,3.63,0,0,0-3-1.35,5.06,5.06,0,0,0-3.54,1.38q-1.5,1.38-1.56,4.86Z"/><path class="cls-1" d="M318.75,347.3a15,15,0,0,1-4.23,1.71,22.2,22.2,0,0,1-5,.51,15.76,15.76,0,0,1-5.85-1.08,13.42,13.42,0,0,1-4.8-3.24,15.52,15.52,0,0,1-3.27-5.34,22.93,22.93,0,0,1,0-14.64,15.2,15.2,0,0,1,3.27-5.31,13.6,13.6,0,0,1,4.8-3.21,15.76,15.76,0,0,1,5.85-1.08,22.2,22.2,0,0,1,5,.51,15,15,0,0,1,4.23,1.71l-3.54,8.28a6.31,6.31,0,0,0-3.78-1.08,4.06,4.06,0,0,0-3.75,2.1,10.31,10.31,0,0,0-1.23,5.28,9.75,9.75,0,0,0,1.32,5.28,4.11,4.11,0,0,0,3.66,2.1,6.31,6.31,0,0,0,3.78-1.08Z"/><path class="cls-1" d="M340.29,348.74V328.28q0-3.42-3.54-3.42a6,6,0,0,0-2.46.48v23.4H322.65v-47.1h11.64v15.3a17.48,17.48,0,0,1,2.73-.78,15.12,15.12,0,0,1,3-.3q5.88,0,8.88,2.85t3,8.31v21.72Z"/><path class="cls-1" d="M375.63,348.08a12.19,12.19,0,0,1-2.82.87,18.66,18.66,0,0,1-3.84.39q-5.46,0-7.68-2.94t-2.22-8.76V325h-3.48V316.4h3.48v-6.6l11.4-3.06v9.66h5.16V325h-5.16V336.8a2.13,2.13,0,0,0,.69,1.86,3.26,3.26,0,0,0,1.89.48,5.69,5.69,0,0,0,1.38-.18,5.92,5.92,0,0,0,1.2-.42Z"/><path class="cls-1" d="M404.43,338.72a9.71,9.71,0,0,1-3.51,7.89q-3.51,2.91-10.89,2.91a28.67,28.67,0,0,1-6-.6,25.31,25.31,0,0,1-5.37-1.8l3.6-8.76a17.6,17.6,0,0,0,3.72,1.5,13.75,13.75,0,0,0,3.72.6,3.12,3.12,0,0,0,1.89-.51,1.55,1.55,0,0,0,.69-1.29,1.71,1.71,0,0,0-.93-1.56,13.42,13.42,0,0,0-2.31-1q-1.38-.48-3-1.14a12.87,12.87,0,0,1-3.09-1.77,9.43,9.43,0,0,1-2.43-2.85,8.63,8.63,0,0,1-1-4.32,9.22,9.22,0,0,1,3.45-7.62q3.45-2.76,9.69-2.76a27.47,27.47,0,0,1,5.79.6,22.91,22.91,0,0,1,5.25,1.8l-3.36,7.74a14.8,14.8,0,0,0-2.94-1.26,10.56,10.56,0,0,0-3.12-.48,3.64,3.64,0,0,0-2.07.51,1.56,1.56,0,0,0-.75,1.35,1.64,1.64,0,0,0,.39,1.11,4.29,4.29,0,0,0,1,.81,5.49,5.49,0,0,0,1.2.57l1.11.39q1.38.48,3,1.14a12.32,12.32,0,0,1,3.06,1.77,9.12,9.12,0,0,1,2.34,2.79A8.72,8.72,0,0,1,404.43,338.72Z"/><path class="cls-1" d="M439.17,332.6a22.5,22.5,0,0,1-1,6.81,13.82,13.82,0,0,1-2.88,5.16,12.87,12.87,0,0,1-4.8,3.3,17.6,17.6,0,0,1-6.66,1.17,11.69,11.69,0,0,1-1.8-.15,15.2,15.2,0,0,1-1.62-.33v13.08H408.81V318a23.49,23.49,0,0,1,5.58-1.71,40.27,40.27,0,0,1,7.8-.69q8.34,0,12.66,4.29T439.17,332.6Zm-11.64,0q0-4.14-1.29-6.12a4.26,4.26,0,0,0-3.81-2,10.33,10.33,0,0,0-1.14.06,3.34,3.34,0,0,0-.84.18V340a5.56,5.56,0,0,0,.87.24,6,6,0,0,0,1.23.12,4.07,4.07,0,0,0,3.72-2.1A10.91,10.91,0,0,0,427.53,332.6Z"/><path class="cls-1" d="M461.73,325.52a5.29,5.29,0,0,0-1.8-.6,12.77,12.77,0,0,0-2.1-.18,6.9,6.9,0,0,0-2.4.36v23.64H443.79V318a44.19,44.19,0,0,1,6.54-1.71,45,45,0,0,1,8.28-.69q1.62,0,3,.12a21.47,21.47,0,0,1,2.25.3Z"/><path class="cls-1" d="M494.31,347.12a22.82,22.82,0,0,1-5.46,1.68,38.55,38.55,0,0,1-7.68.72q-8,0-12-2.79a9.4,9.4,0,0,1-3.93-8.19,8.6,8.6,0,0,1,1.47-5.16,10.76,10.76,0,0,1,4-3.3,20.51,20.51,0,0,1,5.76-1.83,65.25,65.25,0,0,1,6.93-.81v-.84a2.43,2.43,0,0,0-1-2.07,5.53,5.53,0,0,0-3.24-.75,21.58,21.58,0,0,0-4.95.6,33.75,33.75,0,0,0-4.41,1.32L467,318a45.1,45.1,0,0,1,5.88-1.62,36.22,36.22,0,0,1,7.68-.78q7.08,0,10.41,2.91t3.33,9.57Zm-10.92-12.54a17.62,17.62,0,0,0-5.43.84,2.76,2.76,0,0,0-1.89,2.82,2.72,2.72,0,0,0,1.32,2.49,6.46,6.46,0,0,0,3.42.81q.78,0,1.5-.06a5,5,0,0,0,1.08-.18Z"/><path class="cls-1" d="M518.91,348.74l-4.74-9h-.12l-4.74,9H495.93L506.85,332l-10-15.6H510l4.08,8.34h.12l4.08-8.34h13.08l-10,15.6,10.92,16.74Z"/><path class="cls-1" d="M546.63,306.86a5.28,5.28,0,0,1-.51,2.28,6.39,6.39,0,0,1-1.35,1.89,6,6,0,0,1-2,1.26,6.95,6.95,0,0,1-4.92,0,6.33,6.33,0,0,1-2-1.26,5.75,5.75,0,0,1-1.35-1.89,5.66,5.66,0,0,1,0-4.56,5.75,5.75,0,0,1,1.35-1.89,6.33,6.33,0,0,1,2-1.26,6.95,6.95,0,0,1,4.92,0,6,6,0,0,1,2,1.26,6.39,6.39,0,0,1,1.35,1.89A5.28,5.28,0,0,1,546.63,306.86Zm-12.12,41.88V316.4h11.64v32.34Z"/><path class="cls-1" d="M575.85,338.72a9.71,9.71,0,0,1-3.51,7.89q-3.51,2.91-10.89,2.91a28.67,28.67,0,0,1-6-.6,25.31,25.31,0,0,1-5.37-1.8l3.6-8.76a17.6,17.6,0,0,0,3.72,1.5,13.75,13.75,0,0,0,3.72.6A3.12,3.12,0,0,0,563,340a1.55,1.55,0,0,0,.69-1.29,1.71,1.71,0,0,0-.93-1.56,13.42,13.42,0,0,0-2.31-1q-1.38-.48-3-1.14a12.87,12.87,0,0,1-3.09-1.77,9.43,9.43,0,0,1-2.43-2.85,8.63,8.63,0,0,1-1-4.32,9.22,9.22,0,0,1,3.45-7.62q3.45-2.76,9.69-2.76a27.47,27.47,0,0,1,5.79.6,22.91,22.91,0,0,1,5.25,1.8l-3.36,7.74a14.8,14.8,0,0,0-2.94-1.26,10.56,10.56,0,0,0-3.12-.48,3.64,3.64,0,0,0-2.07.51,1.56,1.56,0,0,0-.75,1.35,1.64,1.64,0,0,0,.39,1.11,4.29,4.29,0,0,0,1,.81,5.49,5.49,0,0,0,1.2.57l1.11.39q1.38.48,3,1.14a12.32,12.32,0,0,1,3.06,1.77,9.12,9.12,0,0,1,2.34,2.79A8.72,8.72,0,0,1,575.85,338.72Z"/><path class="cls-2" d="M594.75,361.64v-60h8.16v60Z"/><path class="cls-2" d="M658.35,348.74V328a3.28,3.28,0,0,0-.87-2.43,3.64,3.64,0,0,0-2.67-.87,5.92,5.92,0,0,0-2.46.42v23.58H640.71V328a3.28,3.28,0,0,0-.87-2.43,3.64,3.64,0,0,0-2.67-.87,5.92,5.92,0,0,0-2.46.42v23.58H623.07V318a37.79,37.79,0,0,1,6-1.71,36.09,36.09,0,0,1,7.26-.69,20.11,20.11,0,0,1,6.54.87,19,19,0,0,1,4,1.89,20,20,0,0,1,4.53-1.86,23,23,0,0,1,6.69-.9q5.76,0,8.82,2.94a10.7,10.7,0,0,1,3.06,8.1v22.08Z"/><path class="cls-2" d="M706,332.6a22.5,22.5,0,0,1-1,6.81,13.82,13.82,0,0,1-2.88,5.16,12.87,12.87,0,0,1-4.8,3.3,17.6,17.6,0,0,1-6.66,1.17,11.69,11.69,0,0,1-1.8-.15,15.2,15.2,0,0,1-1.62-.33v13.08H675.63V318a23.49,23.49,0,0,1,5.58-1.71,40.27,40.27,0,0,1,7.8-.69q8.34,0,12.66,4.29T706,332.6Zm-11.64,0q0-4.14-1.29-6.12a4.26,4.26,0,0,0-3.81-2,10.33,10.33,0,0,0-1.14.06,3.34,3.34,0,0,0-.84.18V340a5.56,5.56,0,0,0,.87.24,6,6,0,0,0,1.23.12,4.07,4.07,0,0,0,3.72-2.1A10.91,10.91,0,0,0,694.35,332.6Z"/></svg>